<?xml version="1.0" encoding="UTF-8"?>
<!DOCTYPE svg PUBLIC "-//W3C//DTD SVG 1.1//EN" "http://www.w3.org/Graphics/SVG/1.1/DTD/svg11.dtd">
<!-- Creator: CorelDRAW 2020 (64-Bit) -->
<svg xmlns="http://www.w3.org/2000/svg" xml:space="preserve" width="600px" height="836px" version="1.1" style="shape-rendering:geometricPrecision; text-rendering:geometricPrecision; image-rendering:optimizeQuality; fill-rule:evenodd; clip-rule:evenodd" viewBox="0 0 417.06 580.81" xmlns:xlink="http://www.w3.org/1999/xlink" xmlns:xodm="http://www.corel.com/coreldraw/odm/2003">
 <defs>
  <style type="text/css">
   <![CDATA[
    .fil4 {fill:#666666}
    .fil1 {fill:#E6212B}
    .fil5 {fill:#666666;fill-rule:nonzero}
    .fil3 {fill:#991D27;fill-rule:nonzero}
    .fil2 {fill:url(#id0)}
    .fil0 {fill:url(#id1)}
   ]]>
  </style>
  <linearGradient id="id0" gradientUnits="userSpaceOnUse" x1="120.98" y1="326.91" x2="334.82" y2="326.91">
   <stop offset="0" style="stop-opacity:1; stop-color:#CC2B31"/>
   <stop offset="1" style="stop-opacity:1; stop-color:#953139"/>
  </linearGradient>
  <linearGradient id="id1" gradientUnits="userSpaceOnUse" x1="133.18" y1="276.31" x2="55.52" y2="141.71">
   <stop offset="0" style="stop-opacity:1; stop-color:#5A5859"/>
   <stop offset="0.309804" style="stop-opacity:1; stop-color:#7C7B7C"/>
   <stop offset="1" style="stop-opacity:1; stop-color:#9F9F9F"/>
  </linearGradient>
 </defs>
 <g id="Layer_x0020_1">
  <metadata id="CorelCorpID_0Corel-Layer"/>
  <g id="_2392830619216">
   <g>
    <path class="fil0" d="M115.21 176.39l0 -30.94 -26.73 -26.73c-15.54,16.61 -25.46,37.97 -31.64,58.56l22.76 22.76 0 -32.04c-5.42,-1.22 -9.47,-6.06 -9.47,-11.85 0,-6.71 5.44,-12.14 12.14,-12.14 6.71,0 12.14,5.43 12.14,12.14 0,5.45 -3.59,10.06 -8.53,11.59l0 52.57 16.6 16.6 0 -28.37c-3.68,-0.77 -6.44,-4.03 -6.44,-7.94 0,-4.47 3.63,-8.1 8.11,-8.1 4.48,0 8.1,3.63 8.1,8.1 0,4.02 -2.92,7.35 -6.75,8l0 31.33 7.78 7.78c3.11,-18.97 9.55,-38.73 18.58,-54.67l-16.65 -16.65zm29.53 201.74l-18.13 18.13c18.68,14.43 39.94,25.87 62.93,33.68 -2.92,-3.39 -24.87,-21.26 -44.8,-51.81zm-22 -43.7l-2.66 50.14 4.95 4.76 16.41 -16.41c-6.94,-11.29 -13.49,-24.15 -18.7,-38.49zm-22.88 21.05l0 16.16c3.89,4.26 7.97,8.37 12.21,12.31l0.45 -16.3 -12.66 -12.17zm-9.06 -21.26l-31.91 -30.66c7.43,20.98 18.29,40.3 31.91,57.44l0 -26.78zm-3.05 -37.85c-10,0 -18.12,-8.11 -18.12,-18.12 0,-10.01 8.12,-18.12 18.12,-18.12 10.01,0 18.12,8.11 18.12,18.12 0,5.35 -2.32,10.17 -6.01,13.48l0 49.66 13.04 12.53 1.38 -50.46c-1.57,-8.49 -2.61,-17.37 -2.99,-26.62 -0.28,-6.55 0.02,-13.6 0.85,-20.87l-32.54 -32.53 0 -17.96 -23.97 -23.98c-5.86,21.14 -7.85,41.06 -8.04,53.74 2.56,-2.11 5.84,-3.37 9.42,-3.37 8.2,0 14.85,6.65 14.85,14.85 0,8.2 -6.65,14.85 -14.85,14.85 -3.06,0 -5.9,-0.92 -8.26,-2.5 1.16,10.69 3.17,21.1 5.95,31.18l36.1 34.69 0 -28.82c-0.99,0.16 -2.01,0.25 -3.05,0.25zm166.89 -173.87l-19.72 19.72c5.68,0.82 11.2,2.12 16.53,3.85 2.8,-7.74 3.7,-15.61 3.19,-23.57zm-19.98 -8.1l-27.4 27.58c4.24,-0.54 8.57,-0.82 12.97,-0.82 2.12,0 4.23,0.06 6.32,0.19l24.16 -24.16 0 -14.65c-1.64,-5.24 -3.71,-10.51 -6.07,-15.8 -1.49,1.71 -3.68,2.79 -6.13,2.79 -1.39,0 -2.71,-0.35 -3.85,-0.97l0 25.84zm-64.94 6.04l-25.5 25.51 0 29.61c11.91,-13.55 27.4,-23.89 44.98,-29.55l0 -24.54c-3.89,-0.6 -6.87,-3.96 -6.87,-8.01 0,-4.48 3.63,-8.11 8.11,-8.11 4.47,0 8.1,3.63 8.1,8.11 0,3.45 -2.16,6.41 -5.21,7.57l0 9.43 24.64 -24.64 0 -16.52 -8.27 -8.26c-1.44,1.33 -3.37,2.15 -5.49,2.15 -4.48,0 -8.11,-3.63 -8.11,-8.11 0,-4.47 3.63,-8.1 8.11,-8.1 4.47,0 8.1,3.63 8.1,8.1 0,1.01 -0.18,1.97 -0.51,2.86l9.51 9.51 0 20.35 -27.98 27.86 0 4.99 31.32 -31.17 0 -38.4c-3.68,-0.77 -6.44,-4.03 -6.44,-7.93 0,-4.48 3.63,-8.11 8.11,-8.11 4.47,0 8.1,3.63 8.1,8.11 0,3.9 -2.76,7.16 -6.44,7.93l0 40.59 -33.17 32.71c2.1,-0.55 4.23,-1.02 6.38,-1.43l29.45 -29.45 -0.23 -31.91c0,-0.06 0,-0.11 0,-0.16 0,-4.48 3.62,-8.11 8.1,-8.11 1.06,0 2.08,0.21 3.01,0.58 2.76,-38.31 -10.45,-62.36 -40.91,-73.9 1.57,6.41 2.41,13.12 2.41,20.02 0,7.42 -0.97,14.62 -2.78,21.48 -4.76,17.98 -15.36,33.59 -29.64,44.67l0 34.27 -0.88 0zm-48.23 -16.75l0 70.55 12.87 12.88 0 -44.9 26.39 -25.87 0 -23.59c-10.47,5.97 -22.35,9.75 -35.01,10.71 -1.41,0.11 -2.83,0.18 -4.25,0.22zm-29.53 11.48l23.25 23.25 0 -34.8c-2.6,-0.13 -5.17,-0.37 -7.71,-0.73 -5.68,3.58 -10.85,7.72 -15.54,12.28z"/>
    <path class="fil1" d="M136.16 270.59c17.24,58.91 96.59,81.08 146.45,37.09 32.55,-28.73 39.85,-87.13 9.55,-123.33 -6.67,-7.97 -19.9,-21.55 -31.18,-25.87 0.21,3.11 0.07,4.2 -1.63,5.4 -4.3,-8.93 -19.27,-14.87 -33.3,-13.78 2.97,7.61 2.87,14.97 -0.85,21.34l-0.71 -7.25c-7.17,1.51 -22.44,7.64 -28.3,11.36 -17.59,11.13 -11.18,18.37 -15.39,24.61 -2.83,4.2 -5.4,2.83 -10.73,9.33 -10.43,12.74 -2.28,15.09 4.63,15.28 2.84,0.79 3.43,1.68 5.86,3.59 3.74,3.28 5.54,6.41 11.71,8.56 -0.3,-6.79 -0.75,-10.04 4.59,-13.93 2.5,-1.82 7.03,-5.17 11.22,-4.13 8.45,2.1 7.71,18.58 3.03,25.35l-11.53 -1c1.64,8.47 5.55,6.07 10.42,11.89 4.43,5.29 5.15,10.05 14.89,9.22 0.69,-11.33 3.82,-20.43 15.65,-25.26 12.59,-5.15 23.16,1.28 27.69,8.33 12.78,19.85 -11.84,44.15 -21.91,50.78 -17.57,11.55 -40.44,15.2 -63.36,7.8 -29.17,-9.41 -39.37,-24.89 -46.8,-35.38z"/>
    <path class="fil2" d="M193.56 337.02c-38.9,-11.94 -65.37,-42.8 -70.39,-83.24 -12.79,50.97 32.22,150.81 91.5,180.42 1.97,0.98 3.96,1.89 5.96,2.71 5.28,2.18 10.66,3.78 16.11,4.74 -0.31,-0.88 -0.82,-1.95 -1.42,-3.19 -0.61,-1.26 -1.32,-2.69 -1.99,-4.26 -2.04,-4.8 -3.8,-10.97 -1.79,-17.82 4.43,-15.07 36.05,-26.57 49.19,-36.5 10.05,-6.09 35.33,-30.22 42.86,-55.34 -11.66,17.51 -28.1,26.64 -48.65,35.26 -16.42,6.89 -43.25,15.23 -52.93,26.7 -1.05,-20.93 54.56,-27.16 87.46,-59.84 20.36,-20.24 30.89,-53.62 22.4,-83.08 -1.73,-5.98 -7.23,-20.05 -12.9,-23.96 1.52,20.15 3.85,32 -2.49,52.09 -8.94,28.38 -28.11,48.68 -55.45,60.92 -19.58,8.77 -46.7,10.77 -67.47,4.39z"/>
   </g>
   <path class="fil3" d="M58.87 511.67c-18.02,24.22 -59.31,11.72 -58.87,-19.52 0.44,-30.46 39.57,-44.39 59.59,-18.91l-10.13 10.45c-9.43,-16.33 -34.94,-9.68 -34.94,8.46 0,17.86 21.66,22.68 30.75,13.58l0 -3.01 -11.88 0 0 -12.99 25.48 0 0 21.94z"/>
   <polygon class="fil3" points="106.5,522.97 64.5,522.97 64.5,461.57 106.5,461.57 106.5,474.24 79.03,474.24 79.03,484.66 106.11,484.66 106.11,497.11 79.03,497.11 78.96,510.02 106.43,510.02 "/>
   <polygon class="fil3" points="173.24,523 158.89,523 158.89,488.85 142.15,517.03 125.95,488.76 125.95,523 111.52,523 111.52,461.53 127.05,461.53 142.42,488.53 158.21,461.53 173.24,461.53 "/>
   <path class="fil3" d="M243.8 523l-15.87 0 -5.46 -11.31 -26.15 0 -5.43 11.31 -16.14 0 29.14 -61.47 11.21 0 28.7 61.47zm-27.16 -24.2l-7.33 -15.47 -7.25 15.47 14.58 0z"/>
   <path class="fil3" d="M288.07 506.3c-0.68,21.85 -32.54,23.3 -46.13,8.62l10.31 -10.66c4.56,4.45 14.08,9.64 20.06,3.68 3.82,-7.1 -11.16,-7.88 -20.92,-14.8 -5.69,-4.03 -9.64,-13.32 -5.17,-22.07 6.8,-14.27 29.45,-14.23 41.14,-2.28l-10.41 10.31c-3.78,-4.51 -13.82,-7.49 -16.84,-2.25 -5.1,10.52 28.67,6.59 27.96,29.45z"/>
   <polygon class="fil3" points="335.45,475.07 319.37,475.07 319.37,523.27 304.1,523.27 304.1,475.07 288.03,475.07 288.03,461.57 335.45,461.57 "/>
   <polygon class="fil3" points="354.98,523.27 340.37,523.27 340.37,461.57 354.98,461.57 "/>
   <polygon class="fil3" points="417.06,523.27 397.5,523.27 376.14,499.7 376.14,523.27 361.89,523.27 361.89,461.57 376.14,461.57 376.14,485.2 398.23,461.57 416.05,461.57 388.25,491.88 "/>
   <g>
    <path class="fil4" d="M223.49 551.66c3.65,-3.4 9.57,-5.95 12.37,-3.05 2.66,4.07 -0.42,8.05 -4.89,12.76 -3.72,3.94 -8.07,8.29 -10.78,11.04 -0.59,0.6 -1.09,1.11 -1.5,1.53l0 6.25 28.32 0 0 -7.78 -16.93 0c4.05,-3.6 7.8,-7.13 11.66,-11.32 7.79,-8.7 4.25,-20.94 -7.76,-21.61 -6.44,-0.37 -11.37,2.18 -15.58,6.12l5.09 6.06z"/>
    <path class="fil4" d="M290.73 551.66c3.65,-3.4 9.57,-5.95 12.36,-3.05 2.67,4.07 -0.42,8.05 -4.88,12.76 -3.72,3.94 -8.07,8.29 -10.79,11.04 -0.58,0.6 -1.09,1.11 -1.49,1.53l0 6.25 28.31 0 0 -7.78 -16.92 0c4.05,-3.6 7.8,-7.13 11.66,-11.32 7.79,-8.7 4.25,-20.94 -7.77,-21.61 -6.43,-0.37 -11.36,2.18 -15.58,6.12l5.1 6.06z"/>
    <path class="fil4" d="M266.25 539.59c11.12,0 14.13,9.21 14.13,20.58 0,11.37 -3.07,20.59 -14.13,20.59 -11.07,0 -14.14,-9.22 -14.14,-20.59 0,-11.37 3.01,-20.58 14.14,-20.58zm0 7.56c4.1,0 5,5.83 5,13.02 0,7.19 -0.85,13.02 -5,13.02 -4.16,0 -5.01,-5.83 -5.01,-13.02 0,-7.19 0.9,-13.02 5.01,-13.02z"/>
    <path class="fil4" d="M330.08 547.89l14.16 0 0 -7.78 -22.23 0 -0.54 7.78 -0.9 13 3.73 2.01c14.11,-3.51 13.48,3.9 13.23,5.77 -0.24,1.88 -3.04,8.25 -17.77,1.67l0.03 8.12c2.92,1.45 6.26,2.44 10.6,2.34 14.78,0.28 16.76,-9.78 16.64,-14.11 -0.13,-4.38 -2.55,-14.56 -17.42,-12.04l0.47 -6.76z"/>
    <g>
     <polygon class="fil5" points="63.19,580.81 77.47,559.24 64.52,539.44 75.48,539.44 83.62,551.76 91.77,539.44 102.57,539.44 89.6,559.25 103.85,580.81 92.78,580.81 83.62,566.8 74.44,580.81 "/>
     <polygon class="fil4" points="117.29,580.81 127.21,580.77 141.35,539.44 131.66,539.45 122.2,569.97 112.67,539.44 103.19,539.44 "/>
     <polygon class="fil4" points="146.4,580.81 155.48,580.77 155.51,539.44 146.23,539.45 "/>
     <polygon class="fil4" points="166.36,580.81 175.44,580.77 175.47,539.44 166.19,539.45 "/>
     <polygon class="fil4" points="185.85,580.81 194.93,580.77 194.96,539.44 185.68,539.45 "/>
    </g>
   </g>
  </g>
 </g>
</svg>